<svg xmlns="http://www.w3.org/2000/svg" xmlns:xlink="http://www.w3.org/1999/xlink" version="1.1" width="256" height="256" viewBox="0 0 256 256" xml:space="preserve">
<g style="stroke: none; stroke-width: 0; stroke-dasharray: none; stroke-linecap: butt; stroke-linejoin: miter; stroke-miterlimit: 10; fill: none; fill-rule: nonzero; opacity: 1;" transform="translate(1.4065934065934016 1.4065934065934016) scale(2.81 2.81)">
	<path d="M 69.181 77.224 H 24.729 c -11.524 0 -20.9 -9.376 -20.9 -20.9 c 0 -6.197 2.724 -12.035 7.473 -16.016 s 10.969 -5.647 17.076 -4.562 l 43.77 7.76 c 8.126 1.44 14.024 8.476 14.024 16.729 C 86.171 69.602 78.549 77.224 69.181 77.224 z M 24.714 39.422 c -3.937 0 -7.771 1.375 -10.843 3.951 c -3.84 3.22 -6.043 7.939 -6.043 12.951 c 0 9.319 7.581 16.9 16.9 16.9 h 44.453 c 7.163 0 12.99 -5.827 12.99 -12.99 c 0 -6.31 -4.51 -11.689 -10.724 -12.791 l -43.769 -7.76 C 26.691 39.508 25.699 39.422 24.714 39.422 z" style="stroke: none; stroke-width: 1; stroke-dasharray: none; stroke-linecap: butt; stroke-linejoin: miter; stroke-miterlimit: 10; fill: rgb(0,0,0); fill-rule: nonzero; opacity: 1;" transform=" matrix(1 0 0 1 0 0) " stroke-linecap="round"/>
	<path d="M 24.381 65.151 c -5.074 0 -9.203 -4.128 -9.203 -9.202 s 4.128 -9.203 9.203 -9.203 s 9.203 4.129 9.203 9.203 S 29.455 65.151 24.381 65.151 z M 24.381 50.746 c -2.869 0 -5.203 2.334 -5.203 5.203 c 0 2.868 2.334 5.202 5.203 5.202 s 5.203 -2.334 5.203 -5.202 C 29.583 53.079 27.249 50.746 24.381 50.746 z" style="stroke: none; stroke-width: 1; stroke-dasharray: none; stroke-linecap: butt; stroke-linejoin: miter; stroke-miterlimit: 10; fill: rgb(0,0,0); fill-rule: nonzero; opacity: 1;" transform=" matrix(1 0 0 1 0 0) " stroke-linecap="round"/>
	<path d="M 42.878 57.949 H 31.583 c -1.104 0 -2 -0.896 -2 -2 s 0.895 -2 2 -2 h 11.295 c 1.104 0 2 0.896 2 2 S 43.982 57.949 42.878 57.949 z" style="stroke: none; stroke-width: 1; stroke-dasharray: none; stroke-linecap: butt; stroke-linejoin: miter; stroke-miterlimit: 10; fill: rgb(0,0,0); fill-rule: nonzero; opacity: 1;" transform=" matrix(1 0 0 1 0 0) " stroke-linecap="round"/>
	<path d="M 31.585 40.344 c -0.649 0 -1.285 -0.315 -1.67 -0.896 L 18.527 22.23 c -0.609 -0.921 -0.356 -2.162 0.564 -2.771 c 0.921 -0.609 2.163 -0.357 2.771 0.564 L 33.251 37.24 c 0.609 0.921 0.356 2.162 -0.564 2.771 C 32.347 40.236 31.964 40.344 31.585 40.344 z" style="stroke: none; stroke-width: 1; stroke-dasharray: none; stroke-linecap: butt; stroke-linejoin: miter; stroke-miterlimit: 10; fill: rgb(0,0,0); fill-rule: nonzero; opacity: 1;" transform=" matrix(1 0 0 1 0 0) " stroke-linecap="round"/>
	<path d="M 31.583 23.127 H 11.207 c -1.104 0 -2 -0.896 -2 -2 s 0.895 -2 2 -2 h 20.376 c 1.104 0 2 0.896 2 2 S 32.688 23.127 31.583 23.127 z" style="stroke: none; stroke-width: 1; stroke-dasharray: none; stroke-linecap: butt; stroke-linejoin: miter; stroke-miterlimit: 10; fill: rgb(0,0,0); fill-rule: nonzero; opacity: 1;" transform=" matrix(1 0 0 1 0 0) " stroke-linecap="round"/>
	<path d="M 67.485 46.708 c -1.104 0 -2 -0.895 -2 -1.999 V 17.723 c 0 -4.151 3.377 -7.529 7.528 -7.529 c 1.483 0 2.817 -0.937 3.319 -2.332 l 2.36 -6.541 c 0.375 -1.04 1.52 -1.578 2.56 -1.203 c 1.039 0.375 1.577 1.521 1.202 2.56 l -2.359 6.54 c -1.071 2.975 -3.918 4.975 -7.082 4.975 c -1.945 0 -3.528 1.583 -3.528 3.529 v 26.986 C 69.485 45.813 68.59 46.708 67.485 46.708 z" style="stroke: none; stroke-width: 1; stroke-dasharray: none; stroke-linecap: butt; stroke-linejoin: miter; stroke-miterlimit: 10; fill: rgb(0,0,0); fill-rule: nonzero; opacity: 1;" transform=" matrix(1 0 0 1 0 0) " stroke-linecap="round"/>
	<path d="M 84.171 90 H 5.829 c -1.104 0 -2 -0.896 -2 -2 v -6.297 c 0 -4.676 3.803 -8.479 8.478 -8.479 h 65.386 c 4.675 0 8.478 3.804 8.478 8.479 V 88 C 86.171 89.104 85.276 90 84.171 90 z M 7.828 86 h 74.343 v -4.297 c 0 -2.47 -2.009 -4.479 -4.478 -4.479 H 12.307 c -2.469 0 -4.478 2.01 -4.478 4.479 V 86 z" style="stroke: none; stroke-width: 1; stroke-dasharray: none; stroke-linecap: butt; stroke-linejoin: miter; stroke-miterlimit: 10; fill: rgb(0,0,0); fill-rule: nonzero; opacity: 1;" transform=" matrix(1 0 0 1 0 0) " stroke-linecap="round"/>
</g>
</svg>